<svg xmlns="http://www.w3.org/2000/svg" viewBox="0 0 32 32"><linearGradient id="a" x1="16" x2="16" y1="29.564" y2="2.436" gradientUnits="userSpaceOnUse"><stop offset="0" stop-color="#ff2d76"/><stop offset="1" stop-color="#fb0000"/></linearGradient><path fill="url(#a)" d="M11.517 20.696a2.603 2.603 0 0 1-2.601-2.6 2.603 2.603 0 0 1 2.601-2.599 2.602 2.602 0 0 1 2.599 2.599 2.601 2.601 0 0 1-2.599 2.6zm18.814-1.812c.039.297.059.59.059.875 0 5.406-6.468 9.804-14.417 9.804S1.556 25.165 1.556 19.759c0-.295.022-.601.065-.912A3.963 3.963 0 0 1 0 15.649a3.99 3.99 0 0 1 3.986-3.986 3.98 3.98 0 0 1 2.377.79c2.471-1.503 5.623-2.379 8.935-2.483l2.54-7.217 6.086 1.455a3.314 3.314 0 0 1 2.939-1.771 3.33 3.33 0 0 1 3.327 3.327 3.33 3.33 0 0 1-3.327 3.327 3.334 3.334 0 0 1-3.312-3.009L19.067 5.01l-1.755 4.988c3.077.194 5.996 1.063 8.301 2.472a3.974 3.974 0 0 1 2.401-.808A3.99 3.99 0 0 1 32 15.648a3.957 3.957 0 0 1-1.669 3.236zM1.91 15.649c0 .399.118.787.332 1.119.525-1.113 1.348-2.163 2.417-3.084a2.079 2.079 0 0 0-2.749 1.965zm26.57 4.11c0-4.353-5.611-7.895-12.507-7.895S3.466 15.406 3.466 19.759s5.611 7.894 12.507 7.894c6.897 0 12.507-3.541 12.507-7.894zm-1.177-6.061c1.076.931 1.901 1.992 2.423 3.118.235-.342.364-.747.364-1.167a2.079 2.079 0 0 0-2.787-1.951zm-1.858-7.934c0 .781.636 1.417 1.417 1.417.782 0 1.417-.636 1.417-1.417a1.418 1.418 0 0 0-2.834 0zM20.773 22.73a.944.944 0 0 0-.675.279c-.052.05-1.3 1.227-4.15 1.227-2.815 0-3.95-1.176-3.953-1.18a.955.955 0 0 0-1.445 1.248c.044.052.461.523 1.342.973 1.13.577 2.495.869 4.057.869 1.552 0 2.933-.287 4.107-.854.909-.439 1.362-.897 1.411-.949A.958.958 0 0 0 21.441 23a.958.958 0 0 0-.668-.27zm-.03-7.233a2.603 2.603 0 0 0-2.601 2.599c0 1.434 1.167 2.6 2.601 2.6a2.602 2.602 0 0 0 2.599-2.6 2.6 2.6 0 0 0-2.599-2.599z"/></svg>